<svg width="758" height="446" fill="none" xmlns="http://www.w3.org/2000/svg"><path fill="#CECECE" d="M241 121h356v130H241z"/><path fill="#359EFF" d="M162 121h95v130h-95z"/><path d="M278.9 226c-3.5 0-6.6-.6-9.3-1.8a15 15 0 0 1-6.5-5.4 16.3 16.3 0 0 1-2.3-9c0-3 .5-5.6 1.6-7.7 1.2-2 2.7-3.7 4.6-5a22 22 0 0 1 6.5-2.8c2.5-.6 5-1 7.8-1.3l7.6-1c2-.3 3.4-.7 4.3-1.3a3 3 0 0 0 1.3-2.6v-.2c0-2.3-.7-4-2.1-5.3a8.7 8.7 0 0 0-6-1.8c-2.7 0-4.9.6-6.5 1.8a8.3 8.3 0 0 0-3.2 4.5l-14-1.2a19 19 0 0 1 12.3-14.2 34.9 34.9 0 0 1 20.2-1c2.7.8 5.2 2 7.4 3.4a16 16 0 0 1 7 14.1V225h-14.3v-7.6h-.5a15.4 15.4 0 0 1-8.8 7.6c-2 .7-4.4 1-7.1 1Zm4.3-10.4c2.2 0 4.2-.4 6-1.3 1.6-1 3-2.1 4-3.6.9-1.6 1.4-3.3 1.4-5.2v-5.8l-2 .9a35.5 35.5 0 0 1-5.8 1.2l-2.7.4c-1.8.2-3.4.6-4.7 1.2a7.4 7.4 0 0 0-3 2.3c-.8 1-1.2 2.1-1.2 3.6 0 2 .8 3.6 2.3 4.7a10 10 0 0 0 5.7 1.6Zm55.7 10.3a20 20 0 0 1-11.2-3.2c-3.3-2.2-6-5.3-8-9.5s-2.9-9.3-2.9-15.4c0-6.3 1-11.4 3-15.6a20.6 20.6 0 0 1 26.7-10.9 14 14 0 0 1 5 3.8 22 22 0 0 1 3 4.5h.4v-27.3h15V225h-14.8v-8.7h-.7c-.7 1.5-1.7 3-3 4.5a15 15 0 0 1-5 3.6c-2 1-4.5 1.5-7.5 1.5Zm4.8-12c2.5 0 4.5-.7 6.2-2 1.7-1.4 3-3.3 4-5.7.8-2.4 1.3-5.2 1.3-8.5 0-3.2-.4-6-1.3-8.4-1-2.4-2.2-4.3-4-5.6a10 10 0 0 0-6.2-2 10 10 0 0 0-6.2 2.1 13 13 0 0 0-4 5.6c-.8 2.4-1.2 5.2-1.2 8.3 0 3.2.4 6 1.3 8.4a13 13 0 0 0 3.9 5.7c1.7 1.4 3.8 2 6.2 2Zm61 12.2c-5.5 0-10.4-1.2-14.4-3.4-4-2.3-7.1-5.6-9.3-9.8a32.2 32.2 0 0 1-3.3-15c0-5.5 1.1-10.5 3.3-14.7 2.2-4.2 5.2-7.5 9.2-10 4-2.3 8.6-3.5 14-3.5 3.6 0 7 .6 10 1.8a22.3 22.3 0 0 1 13.7 13.8c1.3 3.5 2 7.5 2 12.1v4.2h-46.1v-9.4h31.8c0-2.2-.5-4-1.4-5.8-1-1.6-2.3-3-4-4-1.6-.9-3.6-1.4-5.8-1.4-2.3 0-4.3.6-6 1.6a12 12 0 0 0-5.6 10v9c-.1 2.7.4 5 1.4 7 1 2 2.4 3.5 4.3 4.6a14.3 14.3 0 0 0 11.2.9 9.3 9.3 0 0 0 5.9-5.6l13.9.9c-.7 3.3-2.2 6.3-4.4 8.8a22 22 0 0 1-8.4 5.8c-3.5 1.4-7.4 2-12 2Zm77.9-40-13.9.8a7.1 7.1 0 0 0-1.5-3.2c-.8-1-1.8-1.8-3.1-2.3-1.3-.6-2.8-1-4.5-1a11 11 0 0 0-6 1.6c-1.5 1-2.4 2.2-2.4 3.9 0 1.3.6 2.4 1.6 3.3 1 .9 2.8 1.6 5.4 2.1l9.8 2c5.3 1.1 9.3 2.9 12 5.3 2.5 2.4 3.8 5.6 3.8 9.5 0 3.6-1 6.7-3.1 9.4s-5 4.8-8.6 6.3a32.7 32.7 0 0 1-12.6 2.3c-7.2 0-13-1.5-17.2-4.5-4.3-3-6.8-7.2-7.5-12.4l14.8-.8a7.6 7.6 0 0 0 3.3 5c1.7 1.2 4 1.8 6.7 1.8a11 11 0 0 0 6.3-1.6c1.7-1 2.5-2.3 2.5-4a4 4 0 0 0-1.7-3.3c-1.1-1-2.9-1.6-5.3-2.1l-9.4-1.9c-5.3-1-9.3-2.9-11.9-5.5-2.6-2.7-3.9-6-3.9-10 0-3.6 1-6.6 2.9-9.1a18 18 0 0 1 8-5.9c3.5-1.4 7.6-2 12.2-2a27 27 0 0 1 16.3 4.3c4 3 6.3 6.9 7 12Zm53.6 0-13.8.8a7.2 7.2 0 0 0-1.6-3.2 8 8 0 0 0-3-2.3c-1.3-.6-2.8-1-4.6-1a11 11 0 0 0-5.9 1.6c-1.6 1-2.4 2.2-2.4 3.9a4 4 0 0 0 1.6 3.3c1 .9 2.8 1.6 5.3 2.1l9.9 2c5.3 1.1 9.3 2.9 11.9 5.3 2.6 2.4 3.9 5.6 3.9 9.5 0 3.6-1 6.7-3.2 9.4-2 2.7-5 4.8-8.6 6.3a32.7 32.7 0 0 1-12.5 2.3c-7.2 0-13-1.5-17.3-4.5a18 18 0 0 1-7.5-12.4l14.9-.8a7.6 7.6 0 0 0 3.3 5c1.7 1.2 4 1.8 6.6 1.8a11 11 0 0 0 6.4-1.6c1.6-1 2.5-2.3 2.5-4 0-1.3-.6-2.5-1.8-3.3-1-1-2.8-1.6-5.2-2.1l-9.5-1.9c-5.3-1-9.2-2.9-11.9-5.5-2.5-2.7-3.8-6-3.8-10 0-3.6 1-6.6 2.8-9.1 2-2.6 4.6-4.5 8-5.9 3.6-1.4 7.6-2 12.3-2a27 27 0 0 1 16.3 4.3c4 3 6.3 6.9 7 12Zm8.3 38.9v-54.5h15.1V225h-15.1Zm7.6-61.6a8 8 0 0 1-5.8-2.2 7.3 7.3 0 0 1-2.4-5.4c0-2.1.8-4 2.4-5.4a8.1 8.1 0 0 1 5.8-2.3 8 8 0 0 1 5.7 2.3 7.2 7.2 0 0 1 0 10.8 8 8 0 0 1-5.7 2.2Z" fill="#3D3D3D"/><path d="M195.4 225v-72.7h28.7c5.6 0 10.3 1 14.1 3.1 4 2.1 6.9 5 9 8.7 2 3.7 3 8 3 12.8 0 4.8-1 9.1-3.1 12.8a21.4 21.4 0 0 1-9 8.6c-4 2-8.8 3.1-14.3 3.1h-18.3v-12.3h15.8c3 0 5.4-.5 7.3-1.5 2-1 3.4-2.5 4.3-4.3 1-1.9 1.5-4 1.5-6.4 0-2.4-.5-4.5-1.5-6.3a9.7 9.7 0 0 0-4.3-4.2c-2-1-4.4-1.6-7.4-1.6h-10.4V225h-15.4Z" fill="#fff"/><path d="M57.8 334.3h9V314h.4c1.4 2.8 4.4 6.7 11 6.7 9 0 15.7-7.2 15.7-19.7 0-12.8-7-19.7-15.8-19.7-6.7 0-9.5 4-10.9 6.8h-.5v-6.3h-8.9v52.5Zm8.9-33.4c0-7.4 3.2-12.2 9-12.2 6 0 9 5.1 9 12.2 0 7.2-3.1 12.4-9 12.4-5.8 0-9-5-9-12.4Zm45.9 19.9c6 0 9.6-2.8 11.2-6h.3v5.2h8.6v-25.6c0-10-8.2-13-15.5-13-8 0-14.2 3.5-16.2 10.5l8.4 1.2c1-2.7 3.5-4.9 7.9-4.9 4.2 0 6.4 2.1 6.4 5.9v.1c0 2.6-2.7 2.8-9.4 3.5-7.4.8-14.5 3-14.5 11.6 0 7.5 5.5 11.5 12.8 11.5Zm2.3-6.6c-3.7 0-6.4-1.8-6.4-5 0-3.5 3-5 7-5.5 2.4-.4 7.1-1 8.3-1.9v4.5c0 4.3-3.5 7.9-8.9 7.9Zm124.9 6.5c6.5 0 9.5-4 11-6.7h.5v6h8.8v-51h-9v19.1h-.4a11.3 11.3 0 0 0-11-6.8c-8.7 0-15.7 7-15.7 19.7 0 12.5 6.8 19.7 15.8 19.7Zm2.5-7.4c-6 0-9-5.2-9-12.4 0-7.1 3-12.2 9-12.2 5.8 0 9 4.8 9 12.2 0 7.4-3.3 12.4-9 12.4Zm44.3 7.4c8.9 0 15-4.3 16.6-11l-8.4-.9c-1.2 3.2-4.2 5-8 5-5.9 0-9.8-3.9-9.8-10.4h26.6v-2.8c0-13.4-8-19.3-17.5-19.3-11 0-18 8-18 19.8 0 12 7 19.6 18.5 19.6Zm-9.6-23.4c.3-4.9 3.9-9 9.2-9 5.2 0 8.7 3.8 8.7 9H277Zm200.7-5.4c-1.3-6.5-6.4-10.6-15.4-10.6-9.2 0-15.5 4.5-15.4 11.6 0 5.6 3.4 9.3 10.7 10.8l6.5 1.3c3.5.8 5.2 2.2 5.2 4.4 0 2.6-2.9 4.6-7.1 4.6-4.2 0-6.9-1.8-7.6-5.3l-8.8.9c1.1 7 7 11.1 16.4 11.1 9.5 0 16.3-4.9 16.3-12.1 0-5.5-3.5-8.8-10.7-10.4l-6.6-1.4c-3.8-.8-5.4-2.2-5.4-4.4 0-2.6 2.9-4.4 6.6-4.4 4.2 0 6.4 2.3 7 4.8l8.3-.9Zm38.4 0c-1.3-6.5-6.4-10.6-15.4-10.6-9.2 0-15.4 4.5-15.4 11.6 0 5.6 3.4 9.3 10.7 10.8l6.5 1.3c3.5.8 5.2 2.2 5.2 4.4 0 2.6-2.8 4.6-7.1 4.6-4.2 0-6.8-1.8-7.6-5.3l-8.8.9c1.1 7 7 11.1 16.4 11.1 9.5 0 16.3-4.9 16.3-12.1 0-5.5-3.5-8.8-10.7-10.4l-6.5-1.4c-4-.8-5.5-2.2-5.4-4.4 0-2.6 2.8-4.4 6.6-4.4 4.1 0 6.3 2.3 7 4.8l8.2-.9Zm8.2 28.1h9v-38.2h-9V320Zm4.6-43.6c2.8 0 5.1-2.2 5.1-4.9s-2.3-4.9-5.1-4.9c-3 0-5.3 2.2-5.3 5 0 2.6 2.4 4.8 5.3 4.8Z" fill="#000"/><path d="M142.5 320h5.9v-24.2c0-5.1 4-9 9.6-9 1.6 0 3.2.4 3.6.5v-6h-3c-4.6 0-8.6 2.5-10 6.3h-.4v-5.8h-5.7V320Zm26 0h6v-14.3l4-3.8 14.3 18.1h7.5L183 298.1l16.1-16.3h-7.3l-16.7 17h-.7v-29.7h-5.8V320Zm159 .8c8.4 0 14-5.2 15-12h-6c-1 4.2-4.5 6.7-9 6.7-7 0-11.5-5.7-11.5-14.6 0-8.6 4.6-14.3 11.4-14.3 5.2 0 8.3 3.2 9.2 6.7h5.9c-1-7.2-7.1-12-15.2-12-10.3 0-17.2 8.2-17.2 19.8 0 11.4 6.6 19.7 17.3 19.7Zm23.5-.8h5.9v-14.3l4.1-3.8 14.3 18.1h7.4l-17.3-21.9 16.2-16.3h-7.3l-16.7 17h-.7v-29.7H351V320Zm69 .9c6.7 0 10.2-3.6 11.4-6h.3v5.1h5.8v-25.2c0-12-9.2-13.5-14-13.5-5.9 0-12.4 2-15.4 9l5.6 2c1.3-2.8 4.3-5.8 10-5.8 5.3 0 8 2.9 8 7.7v.2c0 2.9-3 2.6-9.9 3.5-7 1-14.8 2.5-14.8 11.3 0 7.4 5.8 11.7 13 11.7Zm1-5.3c-4.7 0-8.1-2-8.1-6.1 0-4.5 4-6 8.6-6.5 2.5-.3 9.2-1 10.2-2.2v5.4c0 4.8-3.8 9.4-10.8 9.4Zm149.4-25.2c-1.9-5.4-6-9-13.6-9-8 0-14 4.5-14 11 0 5.2 3.2 8.8 10.2 10.4l6.3 1.5c3.9.9 5.7 2.7 5.7 5.4 0 3.2-3.5 6-9 6-4.7 0-7.8-2.1-8.8-6.2l-5.6 1.4c1.4 6.4 6.7 9.9 14.6 9.9 8.8 0 14.9-4.9 14.9-11.4 0-5.4-3.4-8.7-10.2-10.4l-5.6-1.4c-4.6-1-6.6-2.6-6.6-5.5 0-3.3 3.5-5.7 8.1-5.7 5.2 0 7.3 2.8 8.3 5.5l5.3-1.5Zm26.1-8.6h-8.1v-9.1h-6v9.1h-5.7v5h5.8v23.9c0 6.6 5.4 9.8 10.3 9.8 2.2 0 3.6-.4 4.4-.7l-1.2-5.3c-.5.1-1.3.3-2.6.3-2.6 0-5-.8-5-5.7v-22.3h8.1v-5Zm20 39c6.7 0 10.2-3.5 11.4-6h.3v5.2h5.9v-25.2c0-12-9.3-13.5-14.2-13.5-5.7 0-12.3 2-15.3 9l5.6 2c1.3-2.8 4.4-5.8 10-5.8 5.3 0 8 2.9 8 7.7v.2c0 2.9-2.9 2.6-9.8 3.5-7.1 1-14.9 2.5-14.9 11.3 0 7.4 5.8 11.7 13 11.7Zm1-5.2c-4.7 0-8.1-2-8.1-6.1 0-4.5 4-6 8.7-6.5 2.4-.3 9.1-1 10.1-2.2v5.4c0 4.8-3.8 9.4-10.7 9.4Zm33.1-18.6c0-6.6 4.2-10.4 9.8-10.4 5.4 0 8.7 3.5 8.7 9.5V320h5.9v-24.3c0-9.7-5.2-14.4-13-14.4-5.7 0-9.3 2.6-11 6.5h-.6v-6h-5.6V320h5.8v-23Zm51.7-15.2h-8.1v-9.1h-5.9v9.1h-5.8v5h5.8v23.9c0 6.6 5.4 9.8 10.3 9.8 2.2 0 3.6-.4 4.4-.7l-1.2-5.3c-.5.1-1.3.3-2.6.3-2.5 0-5-.8-5-5.7v-22.3h8.1v-5Z" fill="#4B4B4B"/></svg>