<svg width="200" height="158" fill="none" xmlns="http://www.w3.org/2000/svg">
  <path
    d="M78.3 89.1v-5h3.6c1.8 0 3 1 3 2.5s-1.2 2.5-3 2.5h-3.6Zm-2.4 6.6h2.4v-4.4h3.5c3 0 5.5-1.6 5.5-4.7 0-2.8-2-4.6-5.2-4.6h-6.2v13.7Zm43.1 37.6c2.6 0 4.2-1 5.7-2.5l-1.6-1.6c-1.2 1.1-2.3 1.8-4 1.8-2.6 0-4.6-2.2-4.6-5 0-2.7 2-4.8 4.6-4.8 1.6 0 2.8.6 4 1.7l1.5-1.8a7.3 7.3 0 0 0-5.5-2.2 7 7 0 0 0-7.1 7.2c0 4 3 7.2 7 7.2Z"
    fill="#AD9079"
  /><path
    d="M100 157.5c-.8 0-1.5-.1-2.1-.4L64.6 142a3.6 3.6 0 0 1-2.3-3.5v-70h75.4v70c0 1.7-.8 2.8-2.3 3.5l-33.3 15.2c-.6.3-1.3.4-2.1.4ZM64.2 70.2v68.2c0 1 .5 1.5 1.2 1.8l33.3 15.2c.7.3 2 .3 2.6 0l33.3-15.2c.8-.3 1.2-.7 1.2-1.8V70.2H64.2Z"
    fill="#AD9079"
  /><path d="M99 79.6h2V135h-2V79.6Z" fill="#AD9079" /><path
    d="M74 106.1h52v2H74v-2Zm11.2 22.8c0 1.3-1 2-2.7 2h-4.2V127h4c2 0 2.9.7 2.9 1.9Zm-.8-5.8c0 1.3-1 1.9-2.6 1.9h-3.5v-3.7H82c1.5 0 2.4.7 2.4 1.8Zm-8.5 9.9h6.6c3 0 5-1.4 5-3.8 0-2-1-2.8-2.7-3.4 1-.5 2-1.4 2-3v-.1c0-1-.3-1.7-1-2.3-.7-.8-2-1.2-3.5-1.2h-6.4V133ZM115 89.1v-5h3.6c1.8 0 3 1 3 2.5s-1.2 2.5-3 2.5H115Zm-2.4 6.6h2.4v-4.4h3.5c3 0 5.5-1.6 5.5-4.7 0-2.8-2-4.6-5.2-4.6h-6.2v13.7Zm31.4 61.8a.9.9 0 0 1-.8-1.1c1.2-4.4 6.9-5.5 9.5-5.8l-3.6-9c-3.5-8.5-2.4-13.1 4-16.7a.9.9 0 0 1 .8 1.6c-6.2 3.5-6 7.7-3.1 14.3l4 10.3a.9.9 0 0 1-.8 1.2s-6.5.2-8.6 3.4h10.9l2.7-4.4-4.2-10.6a.9.9 0 0 1 0-.8c.7-1.2 4.6-7.4 14-8.3a.9.9 0 1 1 .2 1.8c-7.8.7-11.4 5.5-12.4 7l4.2 10.7c.1.2 0 .5 0 .8l-3.3 5.2c-.1.2-.4.4-.7.4H144Zm41.8 0h-14.6a.9.9 0 0 1-.9-1c1.1-5 8.4-5.8 10.6-6l2-5.2-.6-.4c-3.7-2.3-9.2-5.9-9.5-15.5-3.2-.2-13.7-1.3-19.1-9.6a.9.9 0 0 1 1.5-1c3 4.5 7.8 6.7 11.3 7.7 3.9 1 7.1 1 7.2 1 .5 0 .9.5.9 1 0 9.3 5 12.5 8.7 14.9l1.3.8c.3.2.4.7.3 1l-2.6 6.5c-.1.4-.4.6-.8.6 0 0-7 .2-9 3.4h12.7l6.6-16.6c-3-2.1-6.9-7-5.7-14a.9.9 0 0 1 1.8.3c-1.1 6.6 3 11.1 5.4 12.6.4.2.6.6.4 1l-7 18c-.2.3-.5.5-1 .5Zm.3-36-2.1-.3c-4.1-1.1-7.2-5-8.1-10.7a.9.9 0 0 1 1.7-.3c.9 4.9 3.4 8.3 6.8 9.2 2.4.6 4.8-.1 6.4-2 3.1-3.7 1.5-11.1.5-15.5l-.5-2.3c-.6-3.2.2-5.9 2-7.2a4 4 0 0 1 4.3-.4c2 1 3 3.2 2.9 6.2-.1 3-1.3 5.4-1.3 5.5a.9.9 0 0 1-1.4.3 10 10 0 0 1-3-6.5.9.9 0 0 1 1.9-.2 9 9 0 0 0 1.4 4.3c.2-.9.5-2.1.6-3.4 0-2.3-.7-4-1.9-4.6-.8-.4-1.7-.3-2.4.2-1.3 1-1.8 3-1.3 5.5 0 .6.3 1.3.4 2.2 1.1 4.7 2.9 12.6-.8 17a7.9 7.9 0 0 1-6.1 3Zm-47.3-2.9c-.7 0-1.3-.2-1.8-.6-.7-.6-1.1-1.7-1.1-3.2v-13.5a.9.9 0 0 1 1.2-.9c2.6 1 4.5 3.4 5.5 6.7.4 1.4.6 2.7.7 3.5l.8-.2a.9.9 0 0 1 .4 1.8l-1.9.4a.9.9 0 0 1-1-.9s-.1-6.2-3.9-9v12c0 1.3.3 1.8.5 2 .2.1.5.2 1 0l4.7-.9a.9.9 0 0 1 .3 1.8l-4.7 1h-.7Zm10-2a1 1 0 0 1-.8-.9c0-8.5.8-18 10.7-23.3 10.3-5.4 13.7-9.1 15.2-16.7a.9.9 0 1 1 1.8.4c-1.6 8-5.4 12.3-16.2 18-8.6 4.4-9.7 12.8-9.7 20.5l.8-.2a61.3 61.3 0 0 0 24.2-9.8c3.7-2.8 6.5-6.6 8.1-11.2 1.4-3.7 1.9-7.8 1.6-12.2-5.2 15.7-15.1 22.3-30 27.8a.9.9 0 1 1-.7-1.7 54.2 54.2 0 0 0 19.6-11A39 39 0 0 0 184 76.4a.9.9 0 0 1 1.8 0 34 34 0 0 1-1 17.5c-1.8 5-4.8 9-8.8 12a63 63 0 0 1-25 10.2l-1.8.4h-.2Zm-2.5-15.9c-.2 0-.4 0-.6-.2l-7-5.6a7.9 7.9 0 0 1-2.5-2.6c-.3-.8-.3-2-.3-2.3V77.8a.9.9 0 0 1 1.2-.9 10 10 0 0 1 5.5 6.7c.6 1.7.7 3.2.8 4l9.4 3.9a.9.9 0 0 1-.7 1.7L142 89a.9.9 0 0 1-.5-.8c0-.1 0-6.3-3.9-9V90c0 .4 0 1.2.2 1.5.2.6 1.2 1.5 1.8 1.9l7.1 5.6a.9.9 0 0 1-.5 1.6Zm15-13.5a.9.9 0 0 1-.8-.6 7.8 7.8 0 0 0-6.7-4.5 1 1 0 0 1-.4-.2 9.4 9.4 0 0 1-3.5-7.5c0-.4.4-.8.8-.9l6-1.2a8.8 8.8 0 0 0 5.4-3.5c.2-.3.4-.4.7-.4h20.8a.9.9 0 0 1 1 1 7 7 0 0 1-4.9 5.8.9.9 0 1 1-.5-1.7 5 5 0 0 0 3.3-3.4h-19.2a10 10 0 0 1-6.2 4l-5.3 1c.1 3 2 4.7 2.5 5.2 1.3.2 5.8 1 7.9 5.6a.9.9 0 0 1-.9 1.3Zm-32.1-56.4v-2h-18.4a11 11 0 0 0-2.5-6l13-13-1.3-1.3-13 13a10.8 10.8 0 0 0-6-2.4V.6h-2v18.5c-2.2.1-4.3 1-6 2.4l-13-13-1.3 1.3 13 13a10.8 10.8 0 0 0-2.5 6H70.8v2h18.4a11 11 0 0 0 2.5 6l-13 13L80 51l13-13a11 11 0 0 0 6 2.5V59h2V40.6a11 11 0 0 0 6-2.5l13 13 1.3-1.3-13-13a11 11 0 0 0 2.5-6h18.4Zm-22.3 4.6a9 9 0 0 1-7.9 3.2 8.8 8.8 0 0 1-7.8-9.7 8.8 8.8 0 0 1 9.8-8 8.8 8.8 0 0 1 7.8 9.9 8.8 8.8 0 0 1-1.9 4.6ZM56 157.5H43.2a.9.9 0 0 1-.7-.4l-3.2-5.2a.9.9 0 0 1 0-.8l4.1-10.6c-1-1.6-4.5-6.4-12.4-7a.9.9 0 1 1 .1-1.9c9.5.9 13.4 7 14 8.3.2.3.2.6.1.8l-4.1 10.6 2.6 4.4h10.9c-2.1-3.2-8.5-3.4-8.6-3.4a.9.9 0 0 1-.8-1.2l4-10.3c2.8-6.6 3.1-10.8-3.1-14.3a.9.9 0 0 1 .8-1.6c6.4 3.6 7.5 8.2 4 16.6l-3.6 9.1c2.6.3 8.3 1.4 9.5 5.8a.9.9 0 0 1-.8 1.1Zm-42.6-.6-7.1-17.8c-.2-.5 0-1 .4-1.1 2.3-1.5 6.6-6 5.4-12.6a.9.9 0 1 1 1.8-.3c1.2 7-2.7 11.9-5.7 14l6.6 16.6h12.7c-2-3.2-9-3.4-9-3.4a.9.9 0 0 1-.8-.6l-2.6-6.4c-.1-.4 0-.9.4-1.1l1.2-.8c3.7-2.4 8.8-5.6 8.8-15 0-.4.3-.8.9-.8 0 0 3.2 0 7.1-1.1 3.5-1 8.4-3.2 11.3-7.7a.9.9 0 1 1 1.5 1c-5.4 8.3-16 9.4-19 9.6-.4 9.6-6 13.2-9.6 15.5l-.6.4 2 5.2c2.2.2 9.5 1 10.6 6a.9.9 0 0 1-.9 1H14.2a.9.9 0 0 1-.8-.6Zm-5.6-38.3c-3.7-4.5-1.9-12.4-.8-17l.4-2.3c.5-2.5 0-4.5-1.3-5.5-.7-.5-1.6-.6-2.4-.2-1.2.7-2 2.3-1.9 4.6 0 1.3.4 2.5.6 3.4a9 9 0 0 0 1.4-4.3.9.9 0 0 1 1.8.2 10 10 0 0 1-2.9 6.5.9.9 0 0 1-1.4-.3S.1 101.2 0 98.2c0-3 1-5.2 3-6.2a4 4 0 0 1 4.3.4c1.8 1.3 2.6 4 2 7.2l-.5 2.3c-1 4.4-2.6 11.8.5 15.5 1.6 1.9 4 2.6 6.4 2 3.4-.9 6-4.3 6.8-9.2a.9.9 0 0 1 1.8.3c-1 5.6-4 9.6-8.2 10.7l-2 .2c-2.4 0-4.6-1-6.2-2.8Zm52.7 0-4.7-1a.9.9 0 1 1 .3-1.8l4.7 1c.5 0 .8 0 1-.2.2-.1.5-.6.5-1.8v-12c-3.8 2.7-3.8 8.8-3.8 9a.9.9 0 0 1-1.1.8l-1.9-.4a.9.9 0 1 1 .4-1.8l.8.2c.1-.8.3-2.1.7-3.5 1-3.3 3-5.6 5.5-6.7l.8.1c.3.2.4.5.4.8v13.5c0 1.5-.4 2.6-1.1 3.2-.5.4-1 .6-1.8.6h-.7Zm-9.6-2-1.8-.4c-5.7-1.3-16.2-3.6-25-10.2-4-3-7-7-8.7-12a34 34 0 0 1-1-17.5.9.9 0 0 1 1.7 0 39 39 0 0 0 10.5 19.7 54.2 54.2 0 0 0 19.6 11.1.9.9 0 0 1-.6 1.7c-15-5.5-25-12-30-27.8-.4 4.4.2 8.5 1.5 12.2 1.6 4.6 4.4 8.4 8 11.2a61.4 61.4 0 0 0 24.3 9.8l.8.2c0-7.7-1.1-16-9.7-20.6-10.8-5.6-14.6-9.8-16.2-18a.9.9 0 1 1 1.8-.3c1.5 7.6 5 11.3 15.3 16.7 9.8 5.2 10.7 14.8 10.7 23.3a.9.9 0 0 1-1.2.9Zm2.1-16.2a.9.9 0 0 1 .2-1.3l7-5.6h.1c.6-.4 1.6-1.3 1.8-1.9.2-.3.2-1.1.2-1.5V79.3c-3.8 2.7-3.9 8.9-3.9 9 0 .3-.2.7-.5.8l-10 4a.9.9 0 1 1-.7-1.6l9.5-3.9c0-.8.2-2.3.7-4a10 10 0 0 1 5.5-6.7.9.9 0 0 1 1.2.9V90c0 .3 0 1.5-.3 2.3a7.9 7.9 0 0 1-2.4 2.6l-7.1 5.6a.9.9 0 0 1-1.3-.1ZM38.3 87a.9.9 0 0 1-.5-1.2c2-4.7 6.6-5.4 8-5.6.5-.5 2.3-2.3 2.5-5.1l-5.4-1c-3.4-.7-5.5-3-6.2-4H17.5a5 5 0 0 0 3.3 3.3.9.9 0 0 1-.5 1.7 6.8 6.8 0 0 1-4.8-5.9.9.9 0 0 1 .9-1h20.8c.3 0 .6.2.7.5 0 0 2 3 5.3 3.5l6.1 1.2c.5.1.8.5.8.9a9.4 9.4 0 0 1-3.5 7.5 1 1 0 0 1-.5.2c-.5 0-4.8.4-6.6 4.5a.9.9 0 0 1-1.2.5Z"
    fill="#AD9079"
  />
</svg>
