<?xml version="1.0" encoding="UTF-8" standalone="no"?>
<!DOCTYPE svg PUBLIC "-//W3C//DTD SVG 1.1//EN" "http://www.w3.org/Graphics/SVG/1.1/DTD/svg11.dtd">
<svg width="100%" height="100%" viewBox="0 0 32 23" version="1.1" xmlns="http://www.w3.org/2000/svg" xmlns:xlink="http://www.w3.org/1999/xlink" xml:space="preserve" xmlns:serif="http://www.serif.com/" style="fill-rule:evenodd;clip-rule:evenodd;stroke-linejoin:round;stroke-miterlimit:2;">
    <g transform="matrix(1,0,0,1,0,-8)">
        <path d="M15.892,30.338C15.407,30.338 15.007,30.307 14.66,30.216C14.555,30.188 14.486,30.092 14.486,29.983L14.486,27.23C14.486,27.22 14.486,27.209 14.486,27.198C14.496,26.304 14.514,24.778 16.22,23.832C17.613,23.06 19.469,22.478 21.908,22.459C21.928,22.459 21.949,22.459 21.97,22.459C21.991,22.459 22.012,22.459 22.033,22.459C24.471,22.478 26.327,23.06 27.72,23.832C29.426,24.778 29.444,26.304 29.454,27.198C29.454,27.209 29.454,27.22 29.454,27.23L29.454,29.983C29.454,30.092 29.385,30.188 29.28,30.216C28.933,30.307 28.528,30.338 28.048,30.338L15.892,30.338Z" style="fill:url(#_Radial1);fill-rule:nonzero;"/>
        <path d="M15.892,30.338C15.407,30.338 15.007,30.307 14.66,30.216C14.555,30.188 14.486,30.092 14.486,29.983L14.486,27.23C14.486,27.22 14.486,27.209 14.486,27.198C14.496,26.304 14.514,24.778 16.22,23.832C17.613,23.06 19.469,22.478 21.908,22.459C21.928,22.459 21.949,22.459 21.97,22.459C21.991,22.459 22.012,22.459 22.033,22.459C24.471,22.478 26.327,23.06 27.72,23.832C29.426,24.778 29.444,26.304 29.454,27.198C29.454,27.209 29.454,27.22 29.454,27.23L29.454,29.983C29.454,30.092 29.385,30.188 29.28,30.216C28.933,30.307 28.528,30.338 28.048,30.338L15.892,30.338Z" style="fill:url(#_Radial2);fill-rule:nonzero;"/>
        <path d="M15.892,30.338C15.407,30.338 15.007,30.307 14.66,30.216C14.555,30.188 14.486,30.092 14.486,29.983L14.486,27.23C14.486,27.22 14.486,27.209 14.486,27.198C14.496,26.304 14.514,24.778 16.22,23.832C17.613,23.06 19.469,22.478 21.908,22.459C21.928,22.459 21.949,22.459 21.97,22.459C21.991,22.459 22.012,22.459 22.033,22.459C24.471,22.478 26.327,23.06 27.72,23.832C29.426,24.778 29.444,26.304 29.454,27.198C29.454,27.209 29.454,27.22 29.454,27.23L29.454,29.983C29.454,30.092 29.385,30.188 29.28,30.216C28.933,30.307 28.528,30.338 28.048,30.338L15.892,30.338Z" style="fill:url(#_Radial3);fill-rule:nonzero;"/>
        <circle cx="17.23" cy="16.407" r="1.7" style="fill:url(#_Radial4);"/>
        <circle cx="26.71" cy="16.407" r="1.7" style="fill:url(#_Radial5);"/>
        <g>
            <circle cx="26.71" cy="16.407" r="1.214" style="fill:url(#_Radial6);"/>
        </g>
        <g>
            <circle cx="17.369" cy="16.407" r="1.214" style="fill:rgb(20,15,26);"/>
        </g>
        <path d="M17.011,19.232L16.725,13.005C16.58,10.765 18.085,8.771 21.059,8.868L22.941,8.868C26.097,8.868 27.353,10.856 27.214,13.093L26.931,19.222C26.803,21.27 25.053,22.804 22.916,22.865L21.108,22.865C18.91,22.865 17.144,21.276 17.011,19.232Z" style="fill:url(#_Radial7);fill-rule:nonzero;"/>
        <path d="M17.011,19.232L16.725,13.005C16.58,10.765 18.085,8.771 21.059,8.868L22.941,8.868C26.097,8.868 27.353,10.856 27.214,13.093L26.931,19.222C26.803,21.27 25.053,22.804 22.916,22.865L21.108,22.865C18.91,22.865 17.144,21.276 17.011,19.232Z" style="fill:url(#_Radial8);fill-rule:nonzero;"/>
        <path d="M3.013,30.338C2.575,30.338 2.127,30.307 1.781,30.216C1.676,30.188 1.606,30.092 1.606,29.983L1.606,27.23C1.607,27.22 1.607,27.209 1.607,27.198C1.617,26.304 1.635,24.778 3.341,23.832C4.733,23.06 6.59,22.478 9.028,22.459C9.049,22.459 9.07,22.459 9.091,22.459C9.112,22.459 9.132,22.459 9.153,22.459C11.592,22.478 13.448,23.06 14.841,23.832C16.547,24.778 16.565,26.304 16.575,27.198C16.575,27.209 16.575,27.22 16.575,27.23L16.575,29.983C16.575,30.092 16.505,30.188 16.401,30.216C16.054,30.307 15.591,30.338 15.169,30.338L3.013,30.338Z" style="fill:url(#_Radial9);fill-rule:nonzero;"/>
        <path d="M3.013,30.338C2.575,30.338 2.127,30.307 1.781,30.216C1.676,30.188 1.606,30.092 1.606,29.983L1.606,27.23C1.607,27.22 1.607,27.209 1.607,27.198C1.617,26.304 1.635,24.778 3.341,23.832C4.733,23.06 6.59,22.478 9.028,22.459C9.049,22.459 9.07,22.459 9.091,22.459C9.112,22.459 9.132,22.459 9.153,22.459C11.592,22.478 13.448,23.06 14.841,23.832C16.547,24.778 16.565,26.304 16.575,27.198C16.575,27.209 16.575,27.22 16.575,27.23L16.575,29.983C16.575,30.092 16.505,30.188 16.401,30.216C16.054,30.307 15.591,30.338 15.169,30.338L3.013,30.338Z" style="fill:url(#_Radial10);fill-rule:nonzero;"/>
        <path d="M3.013,30.338C2.575,30.338 2.127,30.307 1.781,30.216C1.676,30.188 1.606,30.092 1.606,29.983L1.606,27.23C1.607,27.22 1.607,27.209 1.607,27.198C1.617,26.304 1.635,24.778 3.341,23.832C4.733,23.06 6.59,22.478 9.028,22.459C9.049,22.459 9.07,22.459 9.091,22.459C9.112,22.459 9.132,22.459 9.153,22.459C11.592,22.478 13.448,23.06 14.841,23.832C16.547,24.778 16.565,26.304 16.575,27.198C16.575,27.209 16.575,27.22 16.575,27.23L16.575,29.983C16.575,30.092 16.505,30.188 16.401,30.216C16.054,30.307 15.591,30.338 15.169,30.338L3.013,30.338Z" style="fill:url(#_Radial11);fill-rule:nonzero;"/>
        <circle cx="4.35" cy="16.407" r="1.699" style="fill:url(#_Radial12);"/>
        <circle cx="13.831" cy="16.407" r="1.7" style="fill:url(#_Radial13);"/>
        <g>
            <circle cx="13.831" cy="16.407" r="1.214" style="fill:url(#_Radial14);"/>
        </g>
        <g>
            <circle cx="4.49" cy="16.407" r="1.214" style="fill:rgb(20,15,26);"/>
        </g>
        <path d="M4.132,19.232L3.846,13.005C3.7,10.765 5.206,8.771 8.18,8.868L10.062,8.868C13.218,8.868 14.474,10.856 14.335,13.093L14.052,19.222C13.924,21.27 12.174,22.804 10.037,22.865L8.228,22.865C6.031,22.865 4.265,21.276 4.132,19.232Z" style="fill:url(#_Radial15);fill-rule:nonzero;"/>
        <path d="M4.132,19.232L3.846,13.005C3.7,10.765 5.206,8.771 8.18,8.868L10.062,8.868C13.218,8.868 14.474,10.856 14.335,13.093L14.052,19.222C13.924,21.27 12.174,22.804 10.037,22.865L8.228,22.865C6.031,22.865 4.265,21.276 4.132,19.232Z" style="fill:url(#_Radial16);fill-rule:nonzero;"/>
    </g>
    <defs>
        <radialGradient id="_Radial1" cx="0" cy="0" r="1" gradientUnits="userSpaceOnUse" gradientTransform="matrix(-9.65625,-7.39392e-15,8.39896e-15,-10.9688,28.595,29.396)"><stop offset="0" style="stop-color:rgb(48,43,53);stop-opacity:1"/><stop offset="0.36" style="stop-color:rgb(23,17,27);stop-opacity:1"/><stop offset="1" style="stop-color:rgb(23,17,27);stop-opacity:1"/></radialGradient>
        <radialGradient id="_Radial2" cx="0" cy="0" r="1" gradientUnits="userSpaceOnUse" gradientTransform="matrix(-0.718742,2.5625,-5.33805,-1.49724,28.7825,25.1772)"><stop offset="0" style="stop-color:rgb(61,57,64);stop-opacity:1"/><stop offset="0.19" style="stop-color:rgb(61,57,64);stop-opacity:1"/><stop offset="1" style="stop-color:rgb(61,57,64);stop-opacity:0"/></radialGradient>
        <radialGradient id="_Radial3" cx="0" cy="0" r="1" gradientUnits="userSpaceOnUse" gradientTransform="matrix(0.968747,2.5625,-4.86114,1.83774,20.7512,22.2085)"><stop offset="0" style="stop-color:rgb(5,2,8);stop-opacity:1"/><stop offset="1" style="stop-color:rgb(5,2,8);stop-opacity:0"/></radialGradient>
        <radialGradient id="_Radial4" cx="0" cy="0" r="1" gradientUnits="userSpaceOnUse" gradientTransform="matrix(-6.50665e-16,1.6995,-1.6995,-6.50665e-16,17.2295,16.4067)"><stop offset="0" style="stop-color:rgb(26,20,32);stop-opacity:1"/><stop offset="0.52" style="stop-color:rgb(26,20,32);stop-opacity:1"/><stop offset="1" style="stop-color:rgb(18,14,23);stop-opacity:1"/></radialGradient>
        <radialGradient id="_Radial5" cx="0" cy="0" r="1" gradientUnits="userSpaceOnUse" gradientTransform="matrix(-1.12896,2.86487,-2.86487,-1.12896,27.8393,15.2413)"><stop offset="0" style="stop-color:rgb(65,57,73);stop-opacity:1"/><stop offset="0.26" style="stop-color:rgb(65,57,73);stop-opacity:1"/><stop offset="1" style="stop-color:rgb(25,14,34);stop-opacity:1"/></radialGradient>
        <radialGradient id="_Radial6" cx="0" cy="0" r="1" gradientUnits="userSpaceOnUse" gradientTransform="matrix(-4.64761e-16,1.21393,-1.21393,-4.64761e-16,26.7104,16.4066)"><stop offset="0" style="stop-color:rgb(51,44,58);stop-opacity:1"/><stop offset="1" style="stop-color:rgb(21,9,33);stop-opacity:1"/></radialGradient>
        <radialGradient id="_Radial7" cx="0" cy="0" r="1" gradientUnits="userSpaceOnUse" gradientTransform="matrix(-4.32155,12.6734,-10.0774,-3.43633,25.8241,10.1913)"><stop offset="0" style="stop-color:rgb(60,43,79);stop-opacity:1"/><stop offset="0.1" style="stop-color:rgb(60,43,79);stop-opacity:1"/><stop offset="1" style="stop-color:rgb(11,4,16);stop-opacity:1"/></radialGradient>
        <radialGradient id="_Radial8" cx="0" cy="0" r="1" gradientUnits="userSpaceOnUse" gradientTransform="matrix(-4.74057e-16,1.23821,-2.88184,-1.10333e-15,24.5374,11.3567)"><stop offset="0" style="stop-color:rgb(73,62,86);stop-opacity:1"/><stop offset="1" style="stop-color:rgb(73,62,86);stop-opacity:0"/></radialGradient>
        <radialGradient id="_Radial9" cx="0" cy="0" r="1" gradientUnits="userSpaceOnUse" gradientTransform="matrix(-9.65625,-7.39392e-15,8.39888e-15,-10.9687,15.7158,29.396)"><stop offset="0" style="stop-color:rgb(48,43,53);stop-opacity:1"/><stop offset="0.36" style="stop-color:rgb(23,17,27);stop-opacity:1"/><stop offset="1" style="stop-color:rgb(23,17,27);stop-opacity:1"/></radialGradient>
        <radialGradient id="_Radial10" cx="0" cy="0" r="1" gradientUnits="userSpaceOnUse" gradientTransform="matrix(-0.718742,2.5625,-5.33805,-1.49724,15.9033,25.1772)"><stop offset="0" style="stop-color:rgb(61,57,64);stop-opacity:1"/><stop offset="0.19" style="stop-color:rgb(61,57,64);stop-opacity:1"/><stop offset="1" style="stop-color:rgb(61,57,64);stop-opacity:0"/></radialGradient>
        <radialGradient id="_Radial11" cx="0" cy="0" r="1" gradientUnits="userSpaceOnUse" gradientTransform="matrix(0.968747,2.5625,-4.86114,1.83774,7.87207,22.2085)"><stop offset="0" style="stop-color:rgb(5,2,8);stop-opacity:1"/><stop offset="1" style="stop-color:rgb(5,2,8);stop-opacity:0"/></radialGradient>
        <radialGradient id="_Radial12" cx="0" cy="0" r="1" gradientUnits="userSpaceOnUse" gradientTransform="matrix(-6.50665e-16,1.6995,-1.6995,-6.50665e-16,4.35038,16.4067)"><stop offset="0" style="stop-color:rgb(26,20,32);stop-opacity:1"/><stop offset="0.52" style="stop-color:rgb(26,20,32);stop-opacity:1"/><stop offset="1" style="stop-color:rgb(18,14,23);stop-opacity:1"/></radialGradient>
        <radialGradient id="_Radial13" cx="0" cy="0" r="1" gradientUnits="userSpaceOnUse" gradientTransform="matrix(-1.12896,2.86487,-2.86487,-1.12896,14.9602,15.2413)"><stop offset="0" style="stop-color:rgb(65,57,73);stop-opacity:1"/><stop offset="0.26" style="stop-color:rgb(65,57,73);stop-opacity:1"/><stop offset="1" style="stop-color:rgb(25,14,34);stop-opacity:1"/></radialGradient>
        <radialGradient id="_Radial14" cx="0" cy="0" r="1" gradientUnits="userSpaceOnUse" gradientTransform="matrix(-4.64761e-16,1.21393,-1.21393,-4.64761e-16,13.8312,16.4066)"><stop offset="0" style="stop-color:rgb(51,44,58);stop-opacity:1"/><stop offset="1" style="stop-color:rgb(21,9,33);stop-opacity:1"/></radialGradient>
        <radialGradient id="_Radial15" cx="0" cy="0" r="1" gradientUnits="userSpaceOnUse" gradientTransform="matrix(-4.32155,12.6734,-10.0774,-3.43633,12.945,10.1913)"><stop offset="0" style="stop-color:rgb(60,43,79);stop-opacity:1"/><stop offset="0.1" style="stop-color:rgb(60,43,79);stop-opacity:1"/><stop offset="1" style="stop-color:rgb(11,4,16);stop-opacity:1"/></radialGradient>
        <radialGradient id="_Radial16" cx="0" cy="0" r="1" gradientUnits="userSpaceOnUse" gradientTransform="matrix(-4.74057e-16,1.23821,-2.88184,-1.10333e-15,11.6582,11.3567)"><stop offset="0" style="stop-color:rgb(73,62,86);stop-opacity:1"/><stop offset="1" style="stop-color:rgb(73,62,86);stop-opacity:0"/></radialGradient>
    </defs>
</svg>
