<svg width="1130" height="483" fill="none" xmlns="http://www.w3.org/2000/svg">
  <path
    d="M31 462.2c14.6-8.8 56.4-34.1 93-56.2 36.6-22.2 87.1-52.7 112.2-67.9 25.1-15.1 45.6-27.6 45.5-27.8-.2-.1-17.1 3.4-37.7 7.8-55.1 11.8-74.5 15.8-74.8 15.4-.2-.1.8-1.5 2.1-3.1 2.6-3.2 55.2-70.6 86.9-111.5l19.9-25.6 32.2-12.3c17.7-6.8 38.3-14.7 45.7-17.5 7.4-2.9 13.6-5.1 13.8-5 .2.2-15.5 28.8-30.8 56-1.2 2.2-4.2 7.6-6.6 12-2.5 4.4-13.4 24-24.3 43.5s-19.7 35.6-19.5 35.8c.2.3 18.5-10.6 72.9-43.6 10.5-6.3 19.8-12.2 20.7-13.1 1.6-1.6 7.6-12.1 72.6-129.1 17.8-32.2 32.6-58.8 32.9-59.3.2-.4-13.8-.6-31.2-.5l-31.7.3-13.4 23.9c-7.3 13.2-13.9 24.3-14.7 24.7-2.9 1.6-74.7 28.8-74.7 28.3 0-.3 70.6-91.4 101.4-130.80002l3.1-4-7.5 5.09999C414.9 10.4 406.3 16.1 400 20.2c-6.3 4.1-39.6 26.1-74 48.9-34.4 22.8-69.6 46.1-78.3 51.8-8.6 5.7-15.5 10.6-15.3 10.8.2.2 10-1.2 21.8-3.1 11.8-2 22-3.6 22.6-3.6.7 0-5 8-12.6 17.8-7.6 9.7-30.7 39.3-51.2 65.7C3.30003 477.7.600026 481.2 3.00003 479.4 3.80003 478.7 16.4 471 31 462.2Z"
    fill="#fff"
  /><path
    fill-rule="evenodd"
    clip-rule="evenodd"
    d="m490.8 209 25.7-22.9.3 22.9.2 23h53V60h-65.8l-3.5 6.3c-6 10.8-70.9 127.4-81.5 146.4-5.6 10-10.2 18.4-10.2 18.7 0 .3 12.6.6 28 .6h28.1l25.7-23Zm16.2-65.8c-5.2 9.4-9.7 17.5-9.9 18.2-.2.6 2.8-1.8 6.9-5.4 4-3.6 8.6-7.6 10.2-9 2.9-2.5 2.9-2.6 2.6-11.7l-.3-9.1-9.5 17Z"
    fill="#fff"
  /><path
    d="M707 232v-46h-25.5c-14 0-25.5-.4-25.5-.8s8.6-14.3 19.1-30.8c10.5-16.4 22-34.5 25.5-40l6.4-10.1V60H582v44l25.8.2 25.9.3-6.8 10.5c-3.7 5.8-15.3 23.9-25.8 40.4L582 185.2V232h125ZM1116.6 464.3c-6.3-8.2-68.4-87.9-137.9-177.3-69.6-89.4-126.2-162.6-125.8-162.8.3-.1 10.9 1.5 23.4 3.6 12.5 2.1 22.7 3.7 22.7 3.6 0-.1-2.4-1.8-5.2-3.7C821.9 80.1 738 24.7 736 23.5c-1.7-1.1-3.2-3 23.4 31.1 11.6 14.8 28 35.9 36.6 46.9 8.6 11 22.7 29.2 31.5 40.5 8.7 11.3 17.1 22 18.7 23.8 1.5 1.8 2.8 3.8 2.8 4.5-.1.8-.5.6-1.3-.4-.7-.8-7.9-7.3-16.2-14.4-8.2-7.1-21.3-18.4-29-25-24.9-21.4-78-67-79.8-68.4-1.6-1.3-1.7 2.9-1.7 84.7v86l3.3 1.9c1.602 1.036 17.937 10.948 37.049 22.545l3.551 2.155c20.5 12.5 37.5 22.6 37.6 22.4.2-.2-1.9-7.5-4.7-16.3-6.2-19.8-9.9-31.8-13.7-43.7-1.6-5.1-5.7-18.1-9.1-28.8-3.4-10.7-7.9-25.1-10-31.9l-3.9-12.3 3.2 2.8c3 2.8 42.4 41.6 119.2 117.5 19.3 19 40.7 40.1 47.8 46.9 7 6.8 12.5 12.5 12.3 12.7-.3.3-17.4-3.1-40.6-8.2l-2.553-.552c-15.053-3.258-19.979-4.324-35.247-7.548-9.5-2-17.4-3.5-17.6-3.3-.2.2 13.9 9 31.3 19.5s57 34.5 88.1 53.4c31.1 18.8 66 40 77.5 47 40.3 24.3 52.1 31.5 67 40.6 8.3 5.1 15.3 9.3 15.7 9.3.5.1-4.4-6.5-10.6-14.6Z"
    fill="#fff"
  /><path
    d="M764.9 259.4c20.5 12.5 37.5 22.6 37.6 22.4.2-.2-1.9-7.5-4.7-16.3-6.2-19.8-9.9-31.8-13.7-43.7-1.6-5.1-5.7-18.1-9.1-28.8-3.4-10.7-7.9-25.1-10-31.9l-3.9-12.3 3.2 2.8c3 2.8 42.4 41.6 119.2 117.5 19.3 19 40.7 40.1 47.8 46.9 7 6.8 12.5 12.5 12.3 12.7-.3.3-17.4-3.1-40.6-8.2m-138.1-61.1-3.551-2.155m3.551 2.155c-1.192-.724-2.377-1.442-3.551-2.155M903 320.5l-2.553-.552m2.553.552c-.883-.191-1.733-.375-2.553-.552m-139.098-62.703c-19.112-11.597-35.447-21.509-37.049-22.545l-3.3-1.9v-86c0-81.8.1-86 1.7-84.7 1.8 1.4 54.9 47 79.8 68.4 7.7 6.6 20.8 17.9 29 25 8.3 7.1 15.5 13.6 16.2 14.4.8 1 1.2 1.2 1.3.4 0-.7-1.3-2.7-2.8-4.5-1.6-1.8-10-12.5-18.7-23.8-8.8-11.3-22.9-29.5-31.5-40.5-8.6-11-25-32.1-36.6-46.9-26.6-34.1-25.1-32.2-23.4-31.1 2 1.2 85.9 56.6 157.8 104.2 2.8 1.9 5.2 3.6 5.2 3.7 0 .1-10.2-1.5-22.7-3.6s-23.1-3.7-23.4-3.6c-.4.2 56.2 73.4 125.8 162.8 69.5 89.4 131.6 169.1 137.9 177.3 6.2 8.1 11.1 14.7 10.6 14.6-.4 0-7.4-4.2-15.7-9.3-14.9-9.1-26.7-16.3-67-40.6-11.5-7-46.4-28.2-77.5-47-31.1-18.9-70.7-42.9-88.1-53.4-17.4-10.5-31.5-19.3-31.3-19.5.2-.2 8.1 1.3 17.6 3.3 15.268 3.224 20.194 4.29 35.247 7.548M31 462.2c14.6-8.8 56.4-34.1 93-56.2 36.6-22.2 87.1-52.7 112.2-67.9 25.1-15.1 45.6-27.6 45.5-27.8-.2-.1-17.1 3.4-37.7 7.8-55.1 11.8-74.5 15.8-74.8 15.4-.2-.1.8-1.5 2.1-3.1 2.6-3.2 55.2-70.6 86.9-111.5l19.9-25.6 32.2-12.3c17.7-6.8 38.3-14.7 45.7-17.5 7.4-2.9 13.6-5.1 13.8-5 .2.2-15.5 28.8-30.8 56-1.2 2.2-4.2 7.6-6.6 12-2.5 4.4-13.4 24-24.3 43.5s-19.7 35.6-19.5 35.8c.2.3 18.5-10.6 72.9-43.6 10.5-6.3 19.8-12.2 20.7-13.1 1.6-1.6 7.6-12.1 72.6-129.1 17.8-32.2 32.6-58.8 32.9-59.3.2-.4-13.8-.6-31.2-.5l-31.7.3-13.4 23.9c-7.3 13.2-13.9 24.3-14.7 24.7-2.9 1.6-74.7 28.8-74.7 28.3 0-.3 70.6-91.4 101.4-130.80002l3.1-4-7.5 5.09999C414.9 10.4 406.3 16.1 400 20.2c-6.3 4.1-39.6 26.1-74 48.9-34.4 22.8-69.6 46.1-78.3 51.8-8.6 5.7-15.5 10.6-15.3 10.8.2.2 10-1.2 21.8-3.1 11.8-2 22-3.6 22.6-3.6.7 0-5 8-12.6 17.8-7.6 9.7-30.7 39.3-51.2 65.7C3.30003 477.7.600026 481.2 3.00003 479.4 3.80003 478.7 16.4 471 31 462.2ZM490.8 209l25.7-22.9.3 22.9.2 23h53V60h-65.8l-3.5 6.3c-6 10.8-70.9 127.4-81.5 146.4-5.6 10-10.2 18.4-10.2 18.7 0 .3 12.6.6 28 .6h28.1l25.7-23ZM707 232v-46h-25.5c-14 0-25.5-.4-25.5-.8s8.6-14.3 19.1-30.8c10.5-16.4 22-34.5 25.5-40l6.4-10.1V60H582v44l25.8.2 25.9.3-6.8 10.5c-3.7 5.8-15.3 23.9-25.8 40.4L582 185.2V232h125Zm-209.9-70.6c.2-.7 4.7-8.8 9.9-18.2l9.5-17 .3 9.1c.3 9.1.3 9.2-2.6 11.7-1.6 1.4-6.2 5.4-10.2 9-4.1 3.6-7.1 6-6.9 5.4Z"
    stroke="#000"
    stroke-width="5"
    stroke-miterlimit="2"
    stroke-linejoin="round"
  />
</svg>
