<svg width="32" height="32" fill="none" xmlns="http://www.w3.org/2000/svg">
  <path
    d="M10.5194 7.0517c-.2929-.12106-.52314-.35309-.63823-.63556L8.929 4.25725c-.17788-.343-.69058-.343-.858 0l-.95217 2.15889c-.12556.28247-.35575.50441-.63826.63556l-1.21375.52459c-.35576.1715-.35576.66583 0 .83733l1.21375.52459c.29297.12106.52317.35309.63826.63556L8.071 11.7427c.17788.3431.69058.3431.858 0l.95217-2.16893c.12553-.28247.35573-.50441.63823-.63556l1.2138-.52459c.3557-.1715.3557-.66583 0-.83733l-1.2138-.52459Z"
    fill="#212121"
  /><path
    d="M25.5744 13.5546c-.8699-.3873-1.5578-1.1007-1.9219-1.9771l-2.8628-6.76727c-.526-1.08031-2.0534-1.08031-2.5794 0l-2.8628 6.76727c-.3742.8764-1.0621 1.5898-1.9219 1.9771l-3.62141 1.6409c-1.07225.5299-1.07225 2.0791 0 2.609l3.62141 1.6409c.8699.3873 1.5578 1.1007 1.9219 1.9771l2.8628 6.7673c.526 1.0803 2.0534 1.0803 2.5794 0l2.8628-6.7673c.3742-.8764 1.0621-1.5898 1.9219-1.9771l3.6214-1.6409c1.0723-.5299 1.0723-2.0791 0-2.609l-3.6214-1.6409Z"
    fill="#212121"
  /><path
    d="M8.2811 20.3304c.16063.3918.45355.6954.82205.8717l1.54965.7249c.4629.2351.4629.9109 0 1.146l-1.54965.7249c-.3685.1763-.66142.4897-.82205.8717l-1.22834 2.9778c-.22678.4701-.87874.4701-1.10552 0L4.7189 24.6696c-.16063-.3918-.45355-.6954-.82205-.8717l-1.54961-.7249c-.46299-.2351-.46299-.9109 0-1.146l1.54961-.7249c.3685-.1763.66142-.4897.82205-.8717l1.22834-2.9778c.22678-.4701.87874-.4701 1.10552 0l1.22834 2.9778Z"
    fill="#212121"
  />
</svg>
