<svg width="201" height="201" fill="none" xmlns="http://www.w3.org/2000/svg"><g filter="url(#a)"><path d="M99.377 69.76c-1.07 4.156-4.705 7.257-9.002 9.406-12.178 4.214-21.799 8.267-29.76 12.202-7.046 3.484-6.978 14.493.092 17.93 8.26 4.016 18.631 7.867 30.15 12.433 3.097 1.228 7.474 4.697 8.563 8.96 3.358 13.139 7.925 27.047 12.955 39.888 3.905 9.967 13.558 9.959 17.482 0 5.093-12.93 8.962-26.895 13.33-40.183 1.045-4.103 4.14-7.347 8.13-8.76 10.785-3.821 21.181-8.133 29.655-11.865 7.914-3.485 8.077-14.802.263-18.504-8.346-3.953-18.726-8.531-29.97-12.617-3.957-1.438-7.002-4.473-8.409-8.78-4.739-14.516-7.742-26.823-12.777-39.603-3.924-9.96-14.225-9.653-18.148.306-5.017 12.734-8.518 25.408-12.554 39.187Z" fill="url(#b)"/></g><path d="M99.377 69.76c-1.07 4.156-4.705 7.257-9.002 9.406-12.178 4.214-21.799 8.267-29.76 12.202-7.046 3.484-6.978 14.493.092 17.93 8.26 4.016 18.631 7.867 30.15 12.433 3.097 1.228 7.474 4.697 8.563 8.96 3.358 13.139 7.925 27.047 12.955 39.888 3.905 9.967 13.558 9.959 17.482 0 5.093-12.93 8.962-26.895 13.33-40.183 1.045-4.103 4.14-7.347 8.13-8.76 10.785-3.821 21.181-8.133 29.655-11.865 7.914-3.485 8.077-14.802.263-18.504-8.346-3.953-18.726-8.531-29.97-12.617-3.957-1.438-7.002-4.473-8.409-8.78-4.739-14.516-7.742-26.823-12.777-39.603-3.924-9.96-14.225-9.653-18.148.306-5.017 12.734-8.518 25.408-12.554 39.187Z" fill="url(#c)"/><g filter="url(#d)"><path d="M48.793 36.534c-.345 1.338-1.514 2.336-2.897 3.027-3.92 1.356-7.017 2.661-9.579 3.928-2.268 1.12-2.246 4.664.03 5.77 2.658 1.293 5.996 2.532 9.704 4.002.996.395 2.405 1.512 2.756 2.884 1.08 4.229 2.55 8.705 4.17 12.838 1.256 3.208 4.363 3.206 5.626 0 1.64-4.161 2.885-8.656 4.29-12.933.337-1.32 1.333-2.365 2.617-2.82 3.471-1.23 6.817-2.617 9.545-3.818 2.547-1.122 2.6-4.764.084-5.956-2.685-1.272-6.026-2.746-9.646-4.06-1.273-.464-2.253-1.44-2.706-2.827-1.525-4.672-2.492-8.633-4.112-12.746-1.263-3.206-4.579-3.107-5.841.098-1.615 4.099-2.742 8.178-4.041 12.613Z" fill="url(#e)"/></g><path d="M48.793 36.534c-.345 1.338-1.514 2.336-2.897 3.027-3.92 1.356-7.017 2.661-9.579 3.928-2.268 1.12-2.246 4.664.03 5.77 2.658 1.293 5.996 2.532 9.704 4.002.996.395 2.405 1.512 2.756 2.884 1.08 4.229 2.55 8.705 4.17 12.838 1.256 3.208 4.363 3.206 5.626 0 1.64-4.161 2.885-8.656 4.29-12.933.337-1.32 1.333-2.365 2.617-2.82 3.471-1.23 6.817-2.617 9.545-3.818 2.547-1.122 2.6-4.764.084-5.956-2.685-1.272-6.026-2.746-9.646-4.06-1.273-.464-2.253-1.44-2.706-2.827-1.525-4.672-2.492-8.633-4.112-12.746-1.263-3.206-4.579-3.107-5.841.098-1.615 4.099-2.742 8.178-4.041 12.613Z" fill="url(#f)"/><g filter="url(#g)"><path d="M32.826 126.038c-.48 1.865-2.112 3.257-4.04 4.221-5.466 1.892-9.784 3.711-13.356 5.477-3.163 1.563-3.133 6.504.04 8.047 3.708 1.803 8.363 3.531 13.532 5.58 1.39.551 3.355 2.108 3.844 4.021 1.506 5.897 3.557 12.14 5.814 17.903 1.753 4.473 6.085 4.47 7.846 0 2.286-5.803 4.023-12.071 5.983-18.035.469-1.841 1.858-3.297 3.649-3.932 4.84-1.714 9.506-3.65 13.31-5.325 3.55-1.564 3.624-6.643.117-8.304-3.745-1.775-8.404-3.829-13.45-5.663-1.777-.646-3.143-2.008-3.775-3.941-2.127-6.515-3.475-12.038-5.734-17.774-1.762-4.471-6.384-4.333-8.145.137-2.252 5.715-3.824 11.403-5.635 17.588Z" fill="url(#h)"/></g><defs><linearGradient id="b" x1="164.121" y1="70.798" x2="94.548" y2="144.038" gradientUnits="userSpaceOnUse"><stop stop-color="#FFCF5A"/><stop offset="1" stop-color="#FEA254"/></linearGradient><linearGradient id="c" x1="92.672" y1="183.98" x2="130.597" y2="103.98" gradientUnits="userSpaceOnUse"><stop stop-color="#FF886D"/><stop offset="1" stop-color="#FF886D" stop-opacity="0"/></linearGradient><linearGradient id="e" x1="69.631" y1="36.868" x2="47.239" y2="60.441" gradientUnits="userSpaceOnUse"><stop stop-color="#FFDA72"/><stop offset="1" stop-color="#F7A967"/></linearGradient><linearGradient id="f" x1="55.812" y1="75.251" x2="55.812" y2="49.341" gradientUnits="userSpaceOnUse"><stop stop-color="#FDA071"/><stop offset="1" stop-color="#FDA071" stop-opacity="0"/></linearGradient><filter id="a" x="54.967" y="22.698" width="132.285" height="155.603" filterUnits="userSpaceOnUse" color-interpolation-filters="sRGB"><feFlood flood-opacity="0" result="BackgroundImageFix"/><feBlend in="SourceGraphic" in2="BackgroundImageFix" result="shape"/><feColorMatrix in="SourceAlpha" values="0 0 0 0 0 0 0 0 0 0 0 0 0 0 0 0 0 0 127 0" result="hardAlpha"/><feOffset dx=".25" dy="-.25"/><feGaussianBlur stdDeviation=".25"/><feComposite in2="hardAlpha" operator="arithmetic" k2="-1" k3="1"/><feColorMatrix values="0 0 0 0 0.937255 0 0 0 0 0.482353 0 0 0 0 0.329412 0 0 0 1 0"/><feBlend in2="shape" result="effect1_innerShadow_1207_1058"/><feColorMatrix in="SourceAlpha" values="0 0 0 0 0 0 0 0 0 0 0 0 0 0 0 0 0 0 127 0" result="hardAlpha"/><feOffset dx=".25" dy=".25"/><feGaussianBlur stdDeviation=".5"/><feComposite in2="hardAlpha" operator="arithmetic" k2="-1" k3="1"/><feColorMatrix values="0 0 0 0 0.737255 0 0 0 0 0.615686 0 0 0 0 0.415686 0 0 0 1 0"/><feBlend in2="effect1_innerShadow_1207_1058" result="effect2_innerShadow_1207_1058"/><feColorMatrix in="SourceAlpha" values="0 0 0 0 0 0 0 0 0 0 0 0 0 0 0 0 0 0 127 0" result="hardAlpha"/><feOffset dx="-.4" dy=".25"/><feGaussianBlur stdDeviation=".2"/><feComposite in2="hardAlpha" operator="arithmetic" k2="-1" k3="1"/><feColorMatrix values="0 0 0 0 1 0 0 0 0 0.901961 0 0 0 0 0.458824 0 0 0 1 0"/><feBlend in2="effect2_innerShadow_1207_1058" result="effect3_innerShadow_1207_1058"/></filter><filter id="d" x="34.528" y="21.467" width="42.568" height="50.021" filterUnits="userSpaceOnUse" color-interpolation-filters="sRGB"><feFlood flood-opacity="0" result="BackgroundImageFix"/><feBlend in="SourceGraphic" in2="BackgroundImageFix" result="shape"/><feColorMatrix in="SourceAlpha" values="0 0 0 0 0 0 0 0 0 0 0 0 0 0 0 0 0 0 127 0" result="hardAlpha"/><feOffset dx=".1" dy=".1"/><feGaussianBlur stdDeviation=".1"/><feComposite in2="hardAlpha" operator="arithmetic" k2="-1" k3="1"/><feColorMatrix values="0 0 0 0 0.803922 0 0 0 0 0.6 0 0 0 0 0.262745 0 0 0 1 0"/><feBlend in2="shape" result="effect1_innerShadow_1207_1058"/><feColorMatrix in="SourceAlpha" values="0 0 0 0 0 0 0 0 0 0 0 0 0 0 0 0 0 0 127 0" result="hardAlpha"/><feOffset dx="-.1" dy=".1"/><feGaussianBlur stdDeviation=".1"/><feComposite in2="hardAlpha" operator="arithmetic" k2="-1" k3="1"/><feColorMatrix values="0 0 0 0 1 0 0 0 0 0.882353 0 0 0 0 0.423529 0 0 0 1 0"/><feBlend in2="effect1_innerShadow_1207_1058" result="effect2_innerShadow_1207_1058"/></filter><filter id="g" x="13.074" y="104.878" width="59.23" height="69.763" filterUnits="userSpaceOnUse" color-interpolation-filters="sRGB"><feFlood flood-opacity="0" result="BackgroundImageFix"/><feBlend in="SourceGraphic" in2="BackgroundImageFix" result="shape"/><feColorMatrix in="SourceAlpha" values="0 0 0 0 0 0 0 0 0 0 0 0 0 0 0 0 0 0 127 0" result="hardAlpha"/><feOffset dx=".15" dy="-.15"/><feGaussianBlur stdDeviation=".15"/><feComposite in2="hardAlpha" operator="arithmetic" k2="-1" k3="1"/><feColorMatrix values="0 0 0 0 1 0 0 0 0 0.458824 0 0 0 0 0.462745 0 0 0 1 0"/><feBlend in2="shape" result="effect1_innerShadow_1207_1058"/></filter><radialGradient id="h" cx="0" cy="0" r="1" gradientUnits="userSpaceOnUse" gradientTransform="rotate(127.221 2.515 73.917) scale(44.446 43.282)"><stop offset=".365" stop-color="#FFBC64"/><stop offset="1" stop-color="#FF8F6B"/></radialGradient></defs></svg>