<svg width="61" height="63" fill="none" xmlns="http://www.w3.org/2000/svg"><mask id="a" maskUnits="userSpaceOnUse" x="2" y="0" width="58" height="62" fill="#000"><path fill="#fff" d="M2 0h58v62H2z"/><path d="M58.6 24a7.6 7.6 0 0 0-3-6.1L35.4 2.6a7.7 7.7 0 0 0-9.3 0l-20 15.2A7.6 7.6 0 0 0 3 24v14.2a7.6 7.6 0 0 0 3 6l20.5 15.4a7.7 7.7 0 0 0 9.3 0l19.8-15.3a7.6 7.6 0 0 0 3-6.1V24ZM6.4 18.2 26.5 3A7 7 0 0 1 35 3l20.2 15.4a7 7 0 0 1 0 11.1L35.5 44.8a7 7 0 0 1-8.5 0L6.4 29.6A7.1 7.1 0 0 1 4 26.2a7 7 0 0 1 2.4-7.9ZM58 38.1a7 7 0 0 1-2.7 5.6l-20 15.2a7 7 0 0 1-8.4 0L6.4 43.7a7 7 0 0 1-2.8-5.5v-1.7l.4.8a7.5 7.5 0 0 0 1.3 1.5v.1c.3.3.5.5.8.6l20.4 15.4.5.3.3.2.3.1.3.2.2.1.4.1.2.1.4.1h.2l.4.2H31l.2.1h1.1l.1-.1.5-.1h.1l.5-.2h.1l.5-.2h.1c.2 0 .3-.2.5-.3l.6-.3.6-.4 19.8-15.3.7-.5.1-.1.6-.7.6-.8.4-.8V38Zm-.4-2.5a7 7 0 0 1-2.3 3.4l-20 15.2a7 7 0 0 1-8.4 0L6.4 39a7 7 0 0 1-2.8-5.6v-1.6l.1.1.2.5.1.2.3.3v.2a7.4 7.4 0 0 0 1.8 1.7l20.4 15.4.5.3.2.1.4.2.2.2.3.1.3.1.3.1.3.1h.3l.3.1.3.1h2.4l.5-.1h.1l.5-.2h.1l.5-.2h.1l.5-.2.5-.4h.1l.6-.4 19.8-15.3a7.7 7.7 0 0 0 1.6-1.6l.2-.2.2-.4.1-.2.2-.4v-.1h.1v1.6a7 7 0 0 1-.4 2.2Zm0-4.7a6.9 6.9 0 0 1-2.3 3.4l-20 15.2a7 7 0 0 1-8.4 0L6.4 34.3a7 7 0 0 1-2.8-5.6V27l.1.2a7.3 7.3 0 0 0 .6 1v.2A7.3 7.3 0 0 0 6.2 30l20.4 15.4c.2 0 .3.2.5.3l.3.2.3.1.3.2.2.1.3.1.3.1.3.1h.3l.3.1.3.1h2.7l.2-.1.4-.1.2-.1.4-.1.2-.1.4-.2.2-.1.4-.2.1-.1.6-.4L55.6 30a7.8 7.8 0 0 0 1.6-1.6l.1-.2a7.8 7.8 0 0 0 .6-1v-.1h.1v1.6a7 7 0 0 1-.4 2.2Zm-32.9 6.6.2.1 2.4-1.8-7-5.3 9.7 3.2 1.8-1.4-4.3-8.2 7.2 5.9 2.3-1.8-11.8-9.4-2.7 2.1 5 9.1-12-3.6-2 1.6v.2c0 .2 0 .2 11.2 9.3ZM23.3 21l2-1.5L36 28l-1.3 1-9.1-7.4L31 32.1l-1.1.9-13-4.3 9.4 7-1.4 1.1c-3.9-3-9.4-7.5-10.7-8.6l1.5-1.1 13.1 4-5.5-10ZM46 21l-2-1.7-5.2 4-9.6-7.5-2.5 2L38.4 27l7.6-6Zm-17-4.5 9.7 7.6 5.2-4 1.1 1-6.6 5-10.8-8.4 1.5-1.2Z"/><path d="m23.3 21 2-1.4L36 28l-1.3 1-9.1-7.4L31 32.1l-1.1.9-13-4.3 9.4 7-1.4 1.1c-3.9-3-9.4-7.5-10.7-8.6l1.5-1.1 13.1 4-5.5-10Zm5.7-4.4 9.7 7.6 5.2-4 1.1 1-6.6 5-10.8-8.4 1.5-1.2Z"/></mask><path d="M58.6 24a7.6 7.6 0 0 0-3-6.1L35.4 2.6a7.7 7.7 0 0 0-9.3 0l-20 15.2A7.6 7.6 0 0 0 3 24v14.2a7.6 7.6 0 0 0 3 6l20.5 15.4a7.7 7.7 0 0 0 9.3 0l19.8-15.3a7.6 7.6 0 0 0 3-6.1V24ZM6.4 18.2 26.5 3A7 7 0 0 1 35 3l20.2 15.4a7 7 0 0 1 0 11.1L35.5 44.8a7 7 0 0 1-8.5 0L6.4 29.6A7.1 7.1 0 0 1 4 26.2a7 7 0 0 1 2.4-7.9ZM58 38.1a7 7 0 0 1-2.7 5.6l-20 15.2a7 7 0 0 1-8.4 0L6.4 43.7a7 7 0 0 1-2.8-5.5v-1.7l.4.8a7.5 7.5 0 0 0 1.3 1.5v.1c.3.3.5.5.8.6l20.4 15.4.5.3.3.2.3.1.3.2.2.1.4.1.2.1.4.1h.2l.4.2H31l.2.1h1.1l.1-.1.5-.1h.1l.5-.2h.1l.5-.2h.1c.2 0 .3-.2.5-.3l.6-.3.6-.4 19.8-15.3.7-.5.1-.1.6-.7.6-.8.4-.8V38Zm-.4-2.5a7 7 0 0 1-2.3 3.4l-20 15.2a7 7 0 0 1-8.4 0L6.4 39a7 7 0 0 1-2.8-5.6v-1.6l.1.1.2.5.1.2.3.3v.2a7.4 7.4 0 0 0 1.8 1.7l20.4 15.4.5.3.2.1.4.2.2.2.3.1.3.1.3.1.3.1h.3l.3.1.3.1h2.4l.5-.1h.1l.5-.2h.1l.5-.2h.1l.5-.2.5-.4h.1l.6-.4 19.8-15.3a7.7 7.7 0 0 0 1.6-1.6l.2-.2.2-.4.1-.2.2-.4v-.1h.1v1.6a7 7 0 0 1-.4 2.2Zm0-4.7a6.9 6.9 0 0 1-2.3 3.4l-20 15.2a7 7 0 0 1-8.4 0L6.4 34.3a7 7 0 0 1-2.8-5.6V27l.1.2a7.3 7.3 0 0 0 .6 1v.2A7.3 7.3 0 0 0 6.2 30l20.4 15.4c.2 0 .3.2.5.3l.3.2.3.1.3.2.2.1.3.1.3.1.3.1h.3l.3.1.3.1h2.7l.2-.1.4-.1.2-.1.4-.1.2-.1.4-.2.2-.1.4-.2.1-.1.6-.4L55.6 30a7.8 7.8 0 0 0 1.6-1.6l.1-.2a7.8 7.8 0 0 0 .6-1v-.1h.1v1.6a7 7 0 0 1-.4 2.2Zm-32.9 6.6.2.1 2.4-1.8-7-5.3 9.7 3.2 1.8-1.4-4.3-8.2 7.2 5.9 2.3-1.8-11.8-9.4-2.7 2.1 5 9.1-12-3.6-2 1.6v.2c0 .2 0 .2 11.2 9.3ZM23.3 21l2-1.5L36 28l-1.3 1-9.1-7.4L31 32.1l-1.1.9-13-4.3 9.4 7-1.4 1.1c-3.9-3-9.4-7.5-10.7-8.6l1.5-1.1 13.1 4-5.5-10ZM46 21l-2-1.7-5.2 4-9.6-7.5-2.5 2L38.4 27l7.6-6Zm-17-4.5 9.7 7.6 5.2-4 1.1 1-6.6 5-10.8-8.4 1.5-1.2Z" fill="#000"/><path d="m23.3 21 2-1.4L36 28l-1.3 1-9.1-7.4L31 32.1l-1.1.9-13-4.3 9.4 7-1.4 1.1c-3.9-3-9.4-7.5-10.7-8.6l1.5-1.1 13.1 4-5.5-10Zm5.7-4.4 9.7 7.6 5.2-4 1.1 1-6.6 5-10.8-8.4 1.5-1.2Z" fill="#000"/><path d="M58.6 24a7.6 7.6 0 0 0-3-6.1L35.4 2.6a7.7 7.7 0 0 0-9.3 0l-20 15.2A7.6 7.6 0 0 0 3 24v14.2a7.6 7.6 0 0 0 3 6l20.5 15.4a7.7 7.7 0 0 0 9.3 0l19.8-15.3a7.6 7.6 0 0 0 3-6.1V24ZM6.4 18.2 26.5 3A7 7 0 0 1 35 3l20.2 15.4a7 7 0 0 1 0 11.1L35.5 44.8a7 7 0 0 1-8.5 0L6.4 29.6A7.1 7.1 0 0 1 4 26.2a7 7 0 0 1 2.4-7.9ZM58 38.1a7 7 0 0 1-2.7 5.6l-20 15.2a7 7 0 0 1-8.4 0L6.4 43.7a7 7 0 0 1-2.8-5.5v-1.7l.4.8a7.5 7.5 0 0 0 1.3 1.5v.1c.3.3.5.5.8.6l20.4 15.4.5.3.3.2.3.1.3.2.2.1.4.1.2.1.4.1h.2l.4.2H31l.2.1h1.1l.1-.1.5-.1h.1l.5-.2h.1l.5-.2h.1c.2 0 .3-.2.5-.3l.6-.3.6-.4 19.8-15.3.7-.5.1-.1.6-.7.6-.8.4-.8V38Zm-.4-2.5a7 7 0 0 1-2.3 3.4l-20 15.2a7 7 0 0 1-8.4 0L6.4 39a7 7 0 0 1-2.8-5.6v-1.6l.1.1.2.5.1.2.3.3v.2a7.4 7.4 0 0 0 1.8 1.7l20.4 15.4.5.3.2.1.4.2.2.2.3.1.3.1.3.1.3.1h.3l.3.1.3.1h2.4l.5-.1h.1l.5-.2h.1l.5-.2h.1l.5-.2.5-.4h.1l.6-.4 19.8-15.3a7.7 7.7 0 0 0 1.6-1.6l.2-.2.2-.4.1-.2.2-.4v-.1h.1v1.6a7 7 0 0 1-.4 2.2Zm0-4.7a6.9 6.9 0 0 1-2.3 3.4l-20 15.2a7 7 0 0 1-8.4 0L6.4 34.3a7 7 0 0 1-2.8-5.6V27l.1.2a7.3 7.3 0 0 0 .6 1v.2A7.3 7.3 0 0 0 6.2 30l20.4 15.4c.2 0 .3.2.5.3l.3.2.3.1.3.2.2.1.3.1.3.1.3.1h.3l.3.1.3.1h2.7l.2-.1.4-.1.2-.1.4-.1.2-.1.4-.2.2-.1.4-.2.1-.1.6-.4L55.6 30a7.8 7.8 0 0 0 1.6-1.6l.1-.2a7.8 7.8 0 0 0 .6-1v-.1h.1v1.6a7 7 0 0 1-.4 2.2Zm-32.9 6.6.2.1 2.4-1.8-7-5.3 9.7 3.2 1.8-1.4-4.3-8.2 7.2 5.9 2.3-1.8-11.8-9.4-2.7 2.1 5 9.1-12-3.6-2 1.6v.2c0 .2 0 .2 11.2 9.3ZM23.3 21l2-1.5L36 28l-1.3 1-9.1-7.4L31 32.1l-1.1.9-13-4.3 9.4 7-1.4 1.1c-3.9-3-9.4-7.5-10.7-8.6l1.5-1.1 13.1 4-5.5-10ZM46 21l-2-1.7-5.2 4-9.6-7.5-2.5 2L38.4 27l7.6-6Zm-17-4.5 9.7 7.6 5.2-4 1.1 1-6.6 5-10.8-8.4 1.5-1.2Z" stroke="#000" stroke-width="2" stroke-linejoin="bevel" mask="url(#a)"/><path d="m23.3 21 2-1.4L36 28l-1.3 1-9.1-7.4L31 32.1l-1.1.9-13-4.3 9.4 7-1.4 1.1c-3.9-3-9.4-7.5-10.7-8.6l1.5-1.1 13.1 4-5.5-10Zm5.7-4.4 9.7 7.6 5.2-4 1.1 1-6.6 5-10.8-8.4 1.5-1.2Z" stroke="#000" stroke-width="2" stroke-linejoin="bevel" mask="url(#a)"/></svg>