<?xml version="1.0" encoding="UTF-8"?>
<!-- Generated by Pixelmator Pro 3.6.13 -->
<svg
  width="135"
  height="129"
  viewBox="0 0 135 129"
  xmlns="http://www.w3.org/2000/svg"
>
  <g id="Group">
    <path
      id="Path"
      fill="#000000"
      stroke="none"
      d="M 12.2 127.099998 C 5.5 126.699997 2.7 126.099998 2 125 C 1.4 124.099998 1.1 103.099998 1.1 73 C 1.2 22.400002 1.8 3.900002 3.3 2.300003 C 4.4 1.300003 105.699997 0.600006 119.699997 1.5 C 125.5 1.900002 130.600006 2.699997 131.699997 3.5 C 133.399994 4.800003 133.5 8 133.5 65 C 133.5 123.199997 133.399994 125.199997 131.5 126.599998 C 129.899994 127.800003 120.599998 128 75.599998 127.800003 C 45.799999 127.699997 17.299999 127.400002 12.2 127.099998 Z M 62 112.199997 C 62.599998 101.300003 63.799999 99.5 69.300003 101.099998 C 75 102.699997 78 102.199997 79 99.5 C 80.099998 96.5 79.300003 91.5 77.400002 89.900002 C 76.400002 89.099998 74.699997 89.199997 71 90.300003 C 66.099998 91.699997 65.699997 91.699997 63.900002 89.900002 C 62.299999 88.300003 62 86.5 62 78.599998 C 62 68 62.5 68.699997 53.299999 67.5 L 48 66.800003 L 48 71.5 C 48 77.599998 44.400002 81.5 37.799999 82.5 C 27.799999 84 21.4 79.599998 21.6 71.400002 L 21.700001 67.099998 L 15.3 66.400002 C 11.8 66.099998 8.6 66.099998 8.3 66.400002 C 7.6 67.099998 6.5 119.900002 7.1 120.099998 C 8.8 120.599998 37.200001 121.699997 48 121.599998 L 61.5 121.5 L 62 112.199997 Z M 125.400002 121.400002 C 126.800003 120.900002 127 117.599998 127 95.099998 L 127 69.300003 L 115.800003 69.400002 L 104.5 69.5 L 104.800003 63.199997 C 105.099998 57.400002 104.900002 56.900002 102.599998 55.900002 C 99.599998 54.5 93.400002 55.5 92.199997 57.599998 C 91.699997 58.5 91.699997 61 92.300003 63.5 C 94 70.699997 92.699997 71.400002 79.800003 70.599998 L 69 70 L 69 76.699997 L 69 83.5 L 74.300003 83.199997 C 78.900002 82.900002 80.099998 83.199997 82.599998 85.300003 C 85.099998 87.5 85.5 88.5 85.800003 94.900002 C 86.199997 101.900002 86.199997 102 82.599998 105.599998 C 79.300003 108.900002 78.599998 109.199997 74 108.800003 L 69 108.5 L 69 114.699997 C 69 118.699997 69.400002 121 70.300003 121.300003 C 72.099998 122.099998 123.5 122.099998 125.400002 121.400002 Z M 39.900002 75.099998 C 41.400002 74.099998 41.799999 70.099998 40.700001 65.800003 C 40.200001 64 40.5 62.599998 41.700001 61.5 C 43.400002 59.800003 48.400002 59.800003 60.099998 61.599998 L 63.700001 62.199997 L 64.400002 56.900002 C 64.800003 53.900002 65.300003 50.5 65.599998 49.400002 C 66.099998 47.5 65.599998 47.099998 62.200001 46.5 C 57 45.699997 53 41.5 52.299999 36.199997 C 51.200001 28 55.900002 21 62.599998 21 C 65.800003 21 66 20.800003 66 17.599998 C 66 15.800003 66.300003 12.900002 66.599998 11.300003 L 67.199997 8.300003 L 50.299999 7.699997 C 41.099998 7.400002 27.799999 7.400002 20.799999 7.699997 L 8 8.300003 L 8 34.099998 L 8 60 L 16.9 60 C 23.9 60 26.200001 60.400002 28 61.800003 C 30 63.400002 30.1 63.900002 29 68.300003 C 28 72 28 73.300003 29 74.5 C 30.4 76.199997 37.599998 76.5 39.900002 75.099998 Z M 85 59.900002 C 85 54.800003 86.300003 52.400002 90 50.5 C 93.699997 48.599998 103.300003 48.599998 107 50.5 C 110.199997 52.099998 112.5 57.699997 111.599998 61.400002 C 111.099998 63.599998 111.199997 63.599998 116.800003 63.300003 C 119.900002 63.099998 123.5 62.699997 124.800003 62.400002 L 127 62 L 127 35.099998 L 127 8.199997 L 113.800003 7.5 C 99.800003 6.800003 75.5 7.099998 74.599998 8.099998 C 74.300003 8.400002 73.599998 12.300003 73.099998 16.800003 C 72 26.800003 70.900002 28.400002 65.900002 27.599998 C 61.200001 26.900002 59 28.800003 59 33.5 C 59 38.099998 61.299999 40.099998 66.099998 39.800003 C 72.599998 39.5 73.5 41.199997 72.099998 51.199997 C 71.400002 55.699997 70.699997 60.300003 70.400002 61.199997 C 69.800003 63.199997 71.5 63.699997 79.300003 63.900002 L 85 64 L 85 59.900002 Z"
    />
  </g>
</svg>
