<svg width="32" height="32" fill="none" xmlns="http://www.w3.org/2000/svg">
  <path
    d="M21 16c0-2.7614-2.2386-5-5-5s-5 2.2386-5 5 2.2386 5 5 5 5-2.2386 5-5Zm-.5 0c0 2.4853-2.0147 4.5-4.5 4.5s-4.5-2.0147-4.5-4.5 2.0147-4.5 4.5-4.5 4.5 2.0147 4.5 4.5Z"
    fill="#212121"
  /><path
    d="M24 16c0 4.4183-3.5817 8-8 8s-8-3.5817-8-8 3.5817-8 8-8 8 3.5817 8 8Zm-13.5 0c0 3.0376 2.4624 5.5 5.5 5.5s5.5-2.4624 5.5-5.5-2.4624-5.5-5.5-5.5-5.5 2.4624-5.5 5.5Z"
    fill="#212121"
  /><path
    d="M3.69739 23.7893c.03112.7518.34366 1.4645.87561 1.9967l1.64099 1.637c.53208.5321 1.24468.8448 1.99652.8761.75184.0313 1.48802-.221 2.06249-.7071l1.423-1.2.155 1.858c.0627.7497.4047 1.4484.9583 1.9578.5536.5093 1.2785.7921 2.0307.7922h2.32c.7524.0001 1.4775-.2825 2.0313-.7919.5538-.5093.896-1.2083.9587-1.9581l.154-1.858 1.424 1.2c.5745.4861 1.3106.7384 2.0625.7071.7518-.0313 1.4644-.344 1.9965-.8761l1.64-1.64c.5321-.5321.8448-1.2447.8761-1.9965.0313-.7518-.2211-1.488-.7071-2.0625l-1.2-1.423 1.858-.155c.75-.0625 1.4491-.4045 1.9587-.9584.5096-.5538.7924-1.279.7923-2.0316v-2.319c.0001-.7526-.2827-1.4777-.7923-2.0316-.5096-.5538-1.2087-.8959-1.9587-.9584l-1.858-.155 1.2-1.423c.486-.57443.7384-1.31062.7071-2.06246-.0313-.75183-.344-1.46449-.8761-1.99658l-1.64-1.63989c-.5321-.5321-1.2447-.8448-1.9965-.8761-.7519-.0313-1.488.22101-2.0625.70703l-1.424 1.19995-.154-1.85791c-.0624-.75001-.4046-1.44916-.9584-1.95874-.5539-.50958-1.279-.792323-2.0316-.792235h-2.32c-.7524.000163-1.4773.283055-2.031.792605-.5536.50955-.8955 1.20853-.958 1.95837l-.155 1.85791L10.273 4.401c-.57447-.48602-1.31065-.73833-2.06249-.70703-.75184.0313-1.46444.344-1.99652.8761L4.573 6.20996c-.53195.53221-.84449 1.24499-.87561 1.99683-.03112.75183.22143 1.4879.70758 2.06221l1.20001 1.423-1.85797.155c-.75001.0625-1.44916.4046-1.95874.9584-.50958.5539-.792386 1.279-.792298 2.0316v2.3221c-.000088.7526.282718 1.4776.792298 2.0315.50958.5538 1.20873.896 1.95874.9584l1.85797.155-1.20001 1.4231c-.48615.5743-.7387 1.3104-.70758 2.0622ZM14.1607 3.26196c.1853-.16994.4279-.2638.6793-.26294l2.32-.00598c.2514-.00087.494.093.6793.26294.1853.16994.2998.40348.3207.65405l.236 2.82496c.0228.2746.1207.53766.2831.76025.1624.22259.383.39611.6376.50159.2545.10547.5332.13879.8054.09631.2723-.04249.5276-.15914.7379-.33716l2.163-1.83093c.1915-.16234.4371-.2467.6879-.23633.2509.01038.4887.11464.6661.29224l1.64 1.64001c.1773.17741.2815.41504.2918.66565.0104.25061-.0738.49593-.2358.68738l-1.831 2.1641c-.178.2102-.2946.4653-.3372.7375-.0425.2722-.0092.5508.0961.8053.1054.2545.2788.4751.5012.6376.2225.1625.4854.2606.7599.2836l2.825.2349c.2506.0209.4841.1354.654.3207.17.1853.2638.4279.263.6793v2.325c.0008.2514-.093.494-.263.6793-.1699.1853-.4034.2998-.654.3207l-2.825.235c-.2745.0229-.5374.1211-.7599.2835-.2224.1625-.3958.3831-.5012.6376-.1053.2545-.1386.5331-.0961.8053.0426.2722.1592.5273.3372.7376l1.831 2.164c.162.1915.2462.4368.2358.6874-.0103.2506-.1145.4882-.2918.6657l-1.64 1.64c-.1774.1776-.4152.2818-.6661.2922-.2508.0104-.4964-.074-.6879-.2363l-2.163-1.831c-.2103-.178-.4656-.2946-.7379-.3371-.2722-.0425-.5509-.0092-.8054.0963-.2546.1055-.4752.279-.6376.5016-.1624.2226-.2603.4856-.2831.7602l-.236 2.825c-.0211.2504-.1357.4837-.321.6534-.1853.1698-.4277.2635-.679.2626h-2.32c-.2513.0009-.4937-.0928-.679-.2626-.1853-.1697-.2999-.403-.321-.6534l-.236-2.825c-.0229-.2744-.1209-.5372-.2833-.7596-.1623-.2224-.3827-.3959-.6371-.5013-.2544-.1055-.5329-.1389-.805-.0966-.2721.0423-.5273.1588-.7376.3365l-2.16401 1.831c-.19145.162-.43683.2463-.68744.2359-.25061-.0103-.48812-.1145-.66553-.2918l-1.64001-1.64c-.17746-.1773-.2818-.4148-.29236-.6655-.01056-.2506.07343-.496.23535-.6876l1.831-2.164c.17799-.2103.29462-.4654.33715-.7376.04253-.2722.0093-.5508-.09607-.8053-.10536-.2545-.27876-.4751-.50122-.6376-.22245-.1624-.48537-.2606-.75988-.2835l-2.82496-.235c-.25057-.0209-.48411-.1354-.65405-.3207-.16994-.1853-.26387-.4279-.263-.6793v-2.319c-.00087-.2514.09306-.494.263-.6793.16994-.1853.40348-.2998.65405-.3207l2.82496-.235c.27451-.0229.53743-.1209.75988-.2834.22246-.1625.39586-.3832.50122-.6377.10537-.2545.1386-.5331.09607-.8053s-.15916-.5273-.33715-.7376L5.927 8.97998c-.16192-.19157-.24591-.43701-.23535-.68762.01056-.25062.1149-.48813.29236-.66541l1.64001-1.63989c.17741-.17732.41492-.2815.66553-.29187.25061-.01037.49599.07379.68744.23584L11.141 7.76196c.2103.17774.4655.29422.7376.33655.2721.04233.5506.00889.805-.09656.2544-.10545.4748-.2788.6371-.50122.1624-.22242.2604-.48535.2833-.75976l.236-2.82495c.0209-.25058.1354-.48412.3207-.65406Z"
    fill="#212121"
  />
</svg>
