<svg width="28" height="28" viewBox="0 0 28 28" fill="none" xmlns="http://www.w3.org/2000/svg">
<path d="M22.6651 18.1634L22.6576 6.39758C22.6576 5.59039 22.1269 5.03094 21.2888 5.03094H9.52085C8.74016 5.03094 8.18727 5.62555 8.18727 6.3125C8.18727 6.99734 8.7882 7.56007 9.48452 7.56007H13.6576L18.7077 7.38734L16.5744 9.26585L5.41461 20.447C5.15094 20.7148 5 21.0434 5 21.3709C5 22.0494 5.61781 22.6864 6.31554 22.6864C6.65257 22.6864 6.97155 22.5547 7.23944 22.2793L18.4205 11.112L20.3183 8.96912L20.1263 13.8174V18.1998C20.1263 18.8982 20.687 19.5066 21.3814 19.5066C22.0705 19.5066 22.6651 18.9207 22.6651 18.1634Z" fill="white"/>
</svg>
