<?xml version="1.0" encoding="UTF-8"?>
<!-- Generated by Pixelmator Pro 3.6.13 -->
<svg
  width="78"
  height="91"
  viewBox="0 0 78 91"
  xmlns="http://www.w3.org/2000/svg"
>
  <g id="group-copy">
    <path
      id="Path"
      fill="#000000"
      stroke="none"
      d="M 64.099998 27.300003 L 57.5 33.900002 C 68.300003 44.699997 68.300003 62.099998 57.5 72.699997 C 46.700001 83.5 29.299999 83.5 18.700001 72.699997 C 7.9 61.900002 7.9 44.5 18.700001 33.900002 L 35.799999 16.800003 L 38.200001 14.400002 L 38.200001 1.5 L 12.4 27.300003 C -2 41.699997 -2 64.900002 12.4 79.300003 C 26.799999 93.699997 50 93.699997 64.099998 79.300003 C 78.5 64.800003 78.5 41.699997 64.099998 27.300003 Z"
    />
    <path
      id="Path-1"
      fill="#000000"
      stroke="none"
      d="M 56 20.900002 C 56 23.551003 53.851002 25.699997 51.200001 25.699997 C 48.549 25.699997 46.400002 23.551003 46.400002 20.900002 C 46.400002 18.249001 48.549 16.099998 51.200001 16.099998 C 53.851002 16.099998 56 18.249001 56 20.900002 Z"
    />
  </g>
</svg>
