<svg width="32" height="32" fill="none" xmlns="http://www.w3.org/2000/svg">
  <path
    d="M20.5 7.3a1 1 0 0 1-1.4 0 3 3 0 0 0-4.2 0 1 1 0 1 1-1.4-1.4 5 5 0 0 1 7 0c.4.4.4 1 0 1.4Zm-11.6-1A10 10 0 0 0 4 13.8a1 1 0 1 0 2 .3 8 8 0 0 1 3.9-6 1 1 0 1 0-1-1.8ZM24 17.5a1 1 0 0 1 2 0c0 1.9-1.5 3.4-3.4 3.5.3.4.4 1 .4 1.5a1 1 0 0 1-2 0c0-.8-.7-1.5-1.5-1.5h-6.2a1 1 0 0 1 0-2h2.2c.8 0 1.5-.7 1.5-1.5a1 1 0 0 1 2 0c0 .5-.1 1-.4 1.5h3.9c.8 0 1.5-.7 1.5-1.5Z"
    fill="#212121"
  /><path
    d="m32 16.7-.1-1.8C30.9 7 24.3 1 16.3 1H15A15 15 0 0 0 0 16a6 6 0 0 0 6 6h1.2c.7 2.9 3.2 5 6.3 5h7.1l3.1 3.1c.5.5 1.3.2 1.3-.5v-2.7a8 8 0 0 0 7-7.1v-3.1Zm-2.3 4A6 6 0 0 1 24 25H13.5A4.5 4.5 0 0 1 9 21v-.2a5 5 0 0 1 5-4.8 1 1 0 0 0 0-2 7 7 0 0 0-3.4.9 4 4 0 0 0-.8-1.2A1 1 0 1 0 8.4 15c.3.3.5.6.6 1a7 7 0 0 0-2 4H6a4 4 0 0 1-4-4A13 13 0 0 1 15 3h1.3C23 3 28.5 7.8 29.7 14.1c-1-1-2.4-1.7-4-2 .5-1 .8-2 .8-3.1a1 1 0 0 0-2 0 4.5 4.5 0 0 1-4.5 4.5 1 1 0 0 0 0 2c1.6 0 3-.6 4.2-1.6l.3.1a5.5 5.5 0 0 1 5.5 5.2l-.3 1.5Z"
    fill="#212121"
  />
</svg>
